<?xml version="1.0" encoding="UTF-8" standalone="no"?>
<svg
   id="svg2099"
   version="1.1"
   viewBox="0 0 361.37067 171.07855"
   height="171.07855mm"
   width="361.37067mm"
   xmlns="http://www.w3.org/2000/svg"
   xmlns:svg="http://www.w3.org/2000/svg"
   xmlns:rdf="http://www.w3.org/1999/02/22-rdf-syntax-ns#"
   xmlns:cc="http://creativecommons.org/ns#"
   xmlns:dc="http://purl.org/dc/elements/1.1/">
  <defs
     id="defs2093" />
  <metadata
     id="metadata2096">
    <rdf:RDF>
      <cc:Work
         rdf:about="">
        <dc:format>image/svg+xml</dc:format>
        <dc:type
           rdf:resource="http://purl.org/dc/dcmitype/StillImage" />
      </cc:Work>
    </rdf:RDF>
  </metadata>
  <g
     id="layer2"
     style="display:inline"
     transform="translate(-17.343087,-16.140346)">
    <path
       id="path3425"
       d="m 378.71376,114.82159 -48.04514,0.38456 c -17.39368,0.13974 -29.85721,7.9702 -41.17442,-4.30743 -4.58995,-4.97959 -2.6645,-2.82797 -5.04899,-6.52983 -2.56561,-4.90156 -3.90648,-7.227855 -4.87923,-6.313464 -0.18716,0.17612 -1.21629,7.089884 -2.65805,16.393054 -1.04446,6.73957 -2.30564,15.16124 -3.62059,24.23188 -3.13008,21.59132 -6.03926,40.74272 -6.46496,42.55859 -0.96596,4.12072 -3.19546,6.73253 -4.93894,5.78599 -0.65911,-0.35768 -1.6989,-1.5903 -2.31066,-2.73885 -6.86697,-46.11171 -7.67483,-77.34312 -12.45502,-114.945693 -0.39046,-0.700159 -0.22578,-8.009084 -1.55111,-1.591708 -0.50233,2.432081 -2.10054,9.763742 -3.19048,16.458715 -2.44641,15.02655 -3.34822,20.087616 -4.62265,23.000536 -0.87583,2.00185 -2.00563,3.56298 -3.62016,4.34032 -0.85001,0.40945 -5.5616,3.87388 -11.41024,3.87388 -6.46119,0.76047 -11.43287,-0.59862 -16.7826,-2.01779 -0.4785,0.14733 -1.38103,2.34896 -2.24031,7.48127 -1.91461,11.43536 -3.44796,17.59145 -4.65909,18.70516 -1.47207,1.35373 -4.02832,1.12847 -5.15248,-0.45365 -0.99663,-1.40295 -3.90973,-13.80942 -4.71793,-20.09305 -0.24808,-1.92921 -0.72544,-3.66363 -1.06084,-3.85423 -5.79112,-0.56135 -13.0661,-3.79898 -16.5512,1.12212 -6.9284,9.78312 -8.30316,41.0354 -15.84243,64.84347 -0.43577,0.64211 -1.37549,1.50167 -2.08823,1.91102 -1.95427,1.12233 -4.23741,-1.1521 -5.07725,-5.05807 -6.78621,-31.88749 -11.13726,-69.41439 -14.41761,-86.01222 -0.56561,-2.861821 -1.7812,1.692588 -5.05045,5.33567 -2.07946,2.317213 -6.88955,7.43033 -11.88719,10.93148 -6.63536,4.58397 -13.96191,6.05324 -21.644547,6.92016 -14.457938,1.63126 -30.176997,-0.59797 -44.923736,-0.36114 m -33.28414,0 v -8.74509 c 11.663658,-0.50542 21.077016,-0.0413 34.155732,0.0182 29.554369,0.14167 46.150358,4.2626 63.319261,-10.950278 4.85421,-4.279262 10.38367,-10.240075 12.77392,-14.896258 2.37742,-4.372562 2.81687,-10.016414 3.86813,-13.52548 2.32888,-7.77346 2.76476,-11.278057 3.93137,-12.795888 2.58318,-3.360728 5.30848,-1.486546 6.48509,4.4599 0.62682,3.167749 5.35766,40.60117 8.91673,70.554524 0.93471,7.86664 2.50051,19.52859 2.77168,18.7982 1.66953,-4.49671 2.70445,-5.04699 1.56239,-3.2966 l -9e-5,1.3e-4 c -0.507,0.77713 1.99442,-7.62583 3.65371,-15.0638 3.6822,-16.50586 5.49648,-19.90827 7.01512,-21.17209 0.51136,-0.42531 2.94045,-1.79382 6.08047,-2.13116 4.93879,-0.53098 10.05564,-0.26161 6.54776,-0.25064 l 3.78011,-0.0141 0.68734,-2.43455 c 0.3781,-1.33903 1.01627,-3.597041 1.4183,-5.017818 2.85544,-10.09206 7.49304,-9.879595 9.88911,0.452963 0.76492,3.298535 1.46449,9.053595 2.16247,9.379725 4.03961,-10.193119 5.7481,-25.16789 13.38793,-6.75303 0,0 1.7367,3.73547 3.63735,5.05215 5.48611,1.80223 13.04287,0.31001 16.43488,-4.09821 1.68957,-2.83992 0.30561,-0.51713 6.63655,-38.761777 6.7632,-40.85599 8.16389,-44.631366 9.58841,-46.209816 2.01073,-2.227969 4.53782,-1.565773 5.95349,2.108915 1.66879,4.331621 2.3141,21.525637 6.38159,67.413564 2.18093,24.604184 4.14844,45.638604 4.3722,46.743314 0.45452,2.24352 2.44625,2.55112 2.71815,0.41982 0.50377,-3.94809 1.39594,-10.41251 2.39502,-17.45791 2.15169,-15.17337 4.7992,-33.041202 5.13009,-34.269935 0.36047,-1.338932 0.97708,-3.191191 1.37012,-4.115987 0.89289,-2.100796 3.44152,-2.80857 5.11083,-1.419309 1.43261,1.192235 5.68408,7.888994 11.05169,19.364679 8.96151,17.220592 21.40844,9.484952 40.1484,9.591822 l 48.03537,0.27402 v 8.74513 m 0,-8.74513 c 0,2.98925 0,5.73364 0,8.74513"
       style="display:inline;opacity:1;fill:#ffffff;fill-opacity:1;stroke-width:1.90292" />
  </g>
</svg>
