<?xml version="1.0" encoding="UTF-8" standalone="no"?>
<svg
   id="svg2099"
   version="1.1"
   viewBox="0 0 163.93455 130.40709"
   height="492.87717"
   width="619.59515"
   xmlns="http://www.w3.org/2000/svg"
   xmlns:svg="http://www.w3.org/2000/svg"
   xmlns:rdf="http://www.w3.org/1999/02/22-rdf-syntax-ns#"
   xmlns:cc="http://creativecommons.org/ns#"
   xmlns:dc="http://purl.org/dc/elements/1.1/">
  <defs
     id="defs2093" />
  <metadata
     id="metadata2096">
    <rdf:RDF>
      <cc:Work
         rdf:about="">
        <dc:format>image/svg+xml</dc:format>
        <dc:type
           rdf:resource="http://purl.org/dc/dcmitype/StillImage" />
      </cc:Work>
    </rdf:RDF>
  </metadata>
  <g
     id="layer2"
     style="display:inline"
     transform="translate(-17.343087,-81.886353)">
    <path
       id="path3425"
       d="m 181.27764,157.10774 -21.79551,0.29315 c -7.89058,0.10657 -13.54462,6.07537 -18.67863,-3.28339 -2.08222,-3.79576 -1.20875,-2.15567 -2.29046,-4.97745 -1.16388,-3.73627 -1.77216,-5.50952 -2.21345,-4.81251 -0.0849,0.13427 -0.55176,5.40436 -1.20581,12.49579 -0.47382,5.13732 -1.04594,11.55685 -1.64247,18.47104 -1.41995,16.45824 -2.73969,31.05662 -2.93281,32.4408 -0.4382,3.14105 -1.44961,5.13193 -2.24053,4.41042 -0.299,-0.27264 -0.7707,-1.21221 -1.04822,-2.08771 -3.11518,-35.1492 -3.48166,-58.95572 -5.65018,-87.61871 -0.17713,-0.53371 -0.10242,-6.10502 -0.70365,-1.21331 -0.22789,1.8539 -0.95291,7.44254 -1.44736,12.54587 -1.1098,11.45415 -1.5189,15.31201 -2.09704,17.53242 -0.39732,1.52592 -0.90985,2.71593 -1.64228,3.30844 -0.3856,0.31213 -2.523,2.95293 -5.17622,2.95293 -2.93109,0.57967 -5.18648,-0.45631 -7.61336,-1.53809 -0.21707,0.11231 -0.6265,1.79054 -1.01631,5.70268 -0.86856,8.71675 -1.56416,13.4093 -2.113577,14.25824 -0.667802,1.0319 -1.827437,0.86019 -2.337409,-0.3458 -0.452116,-1.06941 -1.773633,-10.52638 -2.140264,-15.31616 -0.112547,-1.47056 -0.329105,-2.79267 -0.481246,-2.93794 -2.627129,-0.4279 -5.92739,-2.8958 -7.508402,0.85535 -3.143042,7.4573 -3.766698,31.27972 -7.186861,49.4277 -0.197686,0.48946 -0.62399,1.14468 -0.947323,1.4567 -0.886553,0.85552 -1.922283,-0.87821 -2.303274,-3.85556 -3.078542,-24.30662 -5.052378,-52.91194 -6.540497,-65.56384 -0.256588,-2.18146 -0.808042,1.2902 -2.291122,4.06717 -0.943338,1.76633 -3.125419,5.66386 -5.392584,8.33265 -3.010104,3.49419 -6.333766,4.61417 -9.818972,5.27496 -6.558794,1.24346 -13.68969,-0.4558 -20.379497,-0.27526 m -15.099235,0 v -6.66606 c 5.291178,-0.38526 9.561516,-0.0314 15.494629,0.0139 13.407238,0.10795 20.935951,3.24923 28.724561,-8.34696 2.202099,-3.26193 4.710519,-7.80563 5.794847,-11.35487 1.078514,-3.33302 1.277865,-7.63511 1.754769,-10.30994 1.056482,-5.92542 1.254222,-8.59684 1.783451,-9.75381 1.171845,-2.56177 2.408173,-1.13315 2.941932,3.39961 0.284355,2.41465 2.430486,30.94872 4.045044,53.78101 0.424028,5.99645 1.13435,14.88591 1.257374,14.32916 0.757367,-3.42767 1.226858,-3.84714 0.708768,-2.51287 l -4.2e-5,9e-5 c -0.230006,0.59238 0.904761,-5.81288 1.657493,-11.48256 1.670412,-12.5818 2.49346,-15.17531 3.182384,-16.13868 0.231977,-0.3242 1.333922,-1.36734 2.758383,-1.62449 2.240475,-0.40474 4.561702,-0.19942 2.970364,-0.19107 l 1.714834,-0.0112 0.311815,-1.85579 c 0.171525,-1.02068 0.461025,-2.74188 0.643404,-3.82488 1.295357,-7.6928 3.399193,-7.53084 4.486166,0.34526 0.346995,2.51437 0.66436,6.90123 0.98099,7.14982 1.832567,-7.76983 2.607607,-19.18453 6.073397,-5.14756 0,0 0.78784,2.84739 1.65006,3.85104 2.48876,1.37377 5.91686,0.23631 7.45563,-3.12391 0.76647,-2.16476 0.13864,-0.39418 3.01065,-29.54662 3.0681,-31.142953 3.70352,-34.020788 4.34975,-35.22398 0.91216,-1.698286 2.05857,-1.19353 2.70078,1.607547 0.75704,3.301838 1.04978,16.408173 2.89499,51.386793 0.98937,18.75482 1.88192,34.78854 1.98343,35.63065 0.20619,1.71014 1.10973,1.9446 1.23308,0.32 0.22853,-3.00947 0.63326,-7.93706 1.08649,-13.3075 0.97611,-11.56607 2.17714,-25.18604 2.32725,-26.12266 0.16352,-1.02062 0.44325,-2.43253 0.62155,-3.13746 0.40505,-1.60135 1.56123,-2.14087 2.3185,-1.08189 0.6499,0.9088 2.57857,6.01348 5.01357,14.76096 4.06536,13.12661 9.71186,7.23001 18.21318,7.31149 l 21.79108,0.20888 v 6.66606 m 0,-6.66606 c 0,2.27859 0,4.37051 0,6.66606"
       style="display:inline;opacity:1;fill:#ffffff;fill-opacity:1;stroke-width:1.119" />
  </g>
</svg>
